<svg width="165" height="165" viewBox="0 0 165 165" fill="none" xmlns="http://www.w3.org/2000/svg">
<path fill-rule="evenodd" clip-rule="evenodd" d="M82.5 0C36.9188 0 0 36.9188 0 82.5C0 119.006 23.6156 149.841 56.4094 160.772C60.5344 161.494 62.0812 159.019 62.0812 156.853C62.0812 154.894 61.9781 148.397 61.9781 141.488C41.25 145.303 35.8875 136.434 34.2375 131.794C33.3094 129.422 29.2875 122.1 25.7812 120.141C22.8937 118.594 18.7687 114.778 25.6781 114.675C32.175 114.572 36.8156 120.656 38.3625 123.131C45.7875 135.609 57.6469 132.103 62.3906 129.938C63.1125 124.575 65.2781 120.966 67.65 118.903C49.2938 116.841 30.1125 109.725 30.1125 78.1688C30.1125 69.1969 33.3094 61.7719 38.5688 55.9969C37.7438 53.9344 34.8563 45.4781 39.3937 34.1344C39.3937 34.1344 46.3031 31.9688 62.0812 42.5906C68.6813 40.7344 75.6937 39.8063 82.7062 39.8063C89.7188 39.8063 96.7312 40.7344 103.331 42.5906C119.109 31.8656 126.019 34.1344 126.019 34.1344C130.556 45.4781 127.669 53.9344 126.844 55.9969C132.103 61.7719 135.3 69.0938 135.3 78.1688C135.3 109.828 116.016 116.841 97.6594 118.903C100.65 121.481 103.228 126.431 103.228 134.166C103.228 145.2 103.125 154.069 103.125 156.853C103.125 159.019 104.672 161.597 108.797 160.772C125.174 155.242 139.406 144.717 149.488 130.676C159.57 116.635 164.995 99.7857 165 82.5C165 36.9188 128.081 0 82.5 0Z" fill="#fff"/>
</svg>
